<svg width="20" height="20" viewBox="0 0 20 20" fill="none" xmlns="http://www.w3.org/2000/svg">
<path d="M1 20H10C11.9778 20 13.9112 19.4135 15.5557 18.3147C17.2002 17.2159 18.4819 15.6541 19.2388 13.8268C19.9957 11.9996 20.1937 9.98891 19.8078 8.0491C19.422 6.10929 18.4696 4.32746 17.0711 2.92894C15.6725 1.53041 13.8907 0.578004 11.9509 0.192152C10.0111 -0.1937 8.00042 0.00433284 6.17316 0.761209C4.3459 1.51809 2.78412 2.79981 1.6853 4.4443C0.586489 6.08879 0 8.02219 0 10V19C0 19.2652 0.105357 19.5196 0.292893 19.7071C0.48043 19.8946 0.734783 20 1 20ZM2 10C2 8.41775 2.46919 6.87103 3.34824 5.55544C4.22729 4.23985 5.47672 3.21447 6.93853 2.60897C8.40034 2.00347 10.0089 1.84504 11.5607 2.15372C13.1126 2.4624 14.538 3.22433 15.6568 4.34315C16.7757 5.46197 17.5376 6.88743 17.8463 8.43928C18.155 9.99113 17.9965 11.5997 17.391 13.0615C16.7855 14.5233 15.7601 15.7727 14.4446 16.6518C13.129 17.5308 11.5822 18 10 18H2V10Z" fill="white"/>
<path d="M5.3848 8.5386C5.09576 8.5386 4.81321 8.62431 4.57289 8.78489C4.33256 8.94547 4.14525 9.17371 4.03464 9.44075C3.92403 9.70779 3.89509 10.0016 3.95148 10.2851C4.00787 10.5686 4.14705 10.829 4.35143 11.0334C4.55581 11.2377 4.81621 11.3769 5.09969 11.4333C5.38318 11.4897 5.67702 11.4608 5.94405 11.3502C6.21109 11.2395 6.43933 11.0522 6.59991 10.8119C6.76049 10.5716 6.8462 10.289 6.8462 10C6.8457 9.61257 6.69157 9.24115 6.41761 8.96719C6.14365 8.69324 5.77223 8.53911 5.3848 8.5386Z" fill="white"/>
<path d="M10 11.4614C10.8071 11.4614 11.4614 10.8071 11.4614 10C11.4614 9.19289 10.8071 8.5386 10 8.5386C9.19289 8.5386 8.5386 9.19289 8.5386 10C8.5386 10.8071 9.19289 11.4614 10 11.4614Z" fill="white"/>
<path d="M14.6152 11.4614C14.9042 11.4614 15.1868 11.3757 15.4271 11.2151C15.6674 11.0545 15.8547 10.8263 15.9654 10.5593C16.076 10.2922 16.1049 9.99838 16.0485 9.7149C15.9921 9.43141 15.8529 9.17102 15.6486 8.96664C15.4442 8.76226 15.1838 8.62307 14.9003 8.56668C14.6168 8.51029 14.323 8.53924 14.0559 8.64984C13.7889 8.76045 13.5607 8.94777 13.4001 9.18809C13.2395 9.42842 13.1538 9.71096 13.1538 10C13.1543 10.3874 13.3084 10.7589 13.5824 11.0328C13.8563 11.3068 14.2278 11.4609 14.6152 11.4614Z" fill="white"/>
</svg>
