<svg width="24" height="24" viewBox="0 0 24 24" fill="none" xmlns="http://www.w3.org/2000/svg">
<path d="M12 0C5.376 0 0 5.376 0 12C0 18.624 5.376 24 12 24C18.624 24 24 18.624 24 12C24 5.376 18.624 0 12 0ZM16.836 12.636L13.236 16.236C13.056 16.416 12.828 16.5 12.6 16.5C12.372 16.5 12.144 16.416 11.964 16.236C11.616 15.888 11.616 15.312 11.964 14.964L14.028 12.9H7.8C7.308 12.9 6.9 12.492 6.9 12C6.9 11.508 7.308 11.1 7.8 11.1H14.028L11.964 9.036C11.616 8.688 11.616 8.112 11.964 7.764C12.312 7.416 12.888 7.416 13.236 7.764L16.836 11.364C17.184 11.712 17.184 12.288 16.836 12.636Z" fill="#FA7854"/>
</svg>
